# xmcd CD database file
#
# Track frame offsets:
#	150
#	33892
#	67533
#	96074
#	128570
#	152096
#	185695
#	217260
#	240673
#
# Disc length: 3893 seconds
#
# Revision: 1
# Processed by: cddbd v1.5.2PL0 Copyright (c) Steve Scherf et al.
# Submitted via: CDex 1.51
#
DISCID=700f3309
DTITLE=Liquid Mantra Remixes by Krishan - Kundalini Chillout
DYEAR=1900
DGENRE=New Age
TTITLE0=1 Invocation - Jai Jagdeesh
TTITLE1=2 WaheGuru - Mirabai Celba
TTITLE2=3 Aap Sahaee Hoa - Jai Jagdeesh
TTITLE3=4 I am - Ninnian Kaur
TTITLE4=5 A thousand Suns - Guruganesha Band
TTITLE5=6 Har Gobinda - Krishna Kaur
TTITLE6=7 Gobinday Mukunday - Sada Sat Kaur
TTITLE7=8 Har Ji - Gurunam Singh
TTITLE8=9 Bhai Man Mere - Ninnian Kaur
EXTD=
EXTT0=
EXTT1=
EXTT2=
EXTT3=
EXTT4=
EXTT5=
EXTT6=
EXTT7=
EXTT8=
PLAYORDER=
